HIERARCHY
ROOT SimulationBone
{
	OFFSET 0.000000 0.000000 0.000000
	CHANNELS 6 Xposition Yposition Zposition Zrotation Yrotation Xrotation 
	JOINT Hips
	{
		OFFSET 0.000000 0.000000 0.000000
		CHANNELS 6 Xposition Yposition Zposition Zrotation Yrotation Xrotation 
		JOINT RightUpLeg
		{
			OFFSET 0.103457 1.857824 10.548509
			CHANNELS 3 Zrotation Yrotation Xrotation
			JOINT RightLeg
			{
				OFFSET 43.500000 -0.000023 0.000006
				CHANNELS 3 Zrotation Yrotation Xrotation
				JOINT RightFoot
				{
					OFFSET 42.372192 0.000011 -0.000009
					CHANNELS 3 Zrotation Yrotation Xrotation
					JOINT RightToe
					{
						OFFSET 17.300005 0.000002 -0.000010
						CHANNELS 3 Zrotation Yrotation Xrotation
						End Site
						{
							OFFSET 0.000000 0.000000 0.000000
						}
					}
				}
			}
		}
		JOINT LeftUpLeg
		{
			OFFSET 0.103458 1.857836 -10.548506
			CHANNELS 3 Zrotation Yrotation Xrotation
			JOINT LeftLeg
			{
				OFFSET 43.500038 -0.000023 0.000017
				CHANNELS 3 Zrotation Yrotation Xrotation
				JOINT LeftFoot
				{
					OFFSET 42.372269 -0.000019 0.000007
					CHANNELS 3 Zrotation Yrotation Xrotation
					JOINT LeftToe
					{
						OFFSET 17.299999 -0.000003 0.000008
						CHANNELS 3 Zrotation Yrotation Xrotation
						End Site
						{
							OFFSET 0.000000 0.000000 0.000000
						}
					}
				}
			}
		}
		JOINT Spine
		{
			OFFSET 6.901969 -2.603729 0.000003
			CHANNELS 3 Zrotation Yrotation Xrotation
			JOINT Spine1
			{
				OFFSET 12.588093 -0.000007 0.000001
				CHANNELS 3 Zrotation Yrotation Xrotation
				JOINT Spine2
				{
					OFFSET 12.343206 0.000014 -0.000007
					CHANNELS 3 Zrotation Yrotation Xrotation
					JOINT Neck
					{
						OFFSET 25.832899 -0.000010 0.000002
						CHANNELS 3 Zrotation Yrotation Xrotation
						JOINT Head
						{
							OFFSET 11.766599 0.000010 -0.000001
							CHANNELS 3 Zrotation Yrotation Xrotation
							End Site
							{
								OFFSET 0.000000 0.000000 0.000000
							}
						}
					}
					JOINT RightShoulder
					{
						OFFSET 19.745895 -1.480371 6.000111
						CHANNELS 3 Zrotation Yrotation Xrotation
						JOINT RightArm
						{
							OFFSET 11.284124 -0.000010 -0.000007
							CHANNELS 3 Zrotation Yrotation Xrotation
							JOINT RightForeArm
							{
								OFFSET 33.000061 0.000006 0.000028
								CHANNELS 3 Zrotation Yrotation Xrotation
								JOINT RightHand
								{
									OFFSET 25.200001 0.000019 0.000008
									CHANNELS 3 Zrotation Yrotation Xrotation
									End Site
									{
										OFFSET 0.000000 0.000000 0.000000
									}
								}
							}
						}
					}
					JOINT LeftShoulder
					{
						OFFSET 19.746101 -1.480375 -6.000078
						CHANNELS 3 Zrotation Yrotation Xrotation
						JOINT LeftArm
						{
							OFFSET 11.284128 -0.000010 -0.000011
							CHANNELS 3 Zrotation Yrotation Xrotation
							JOINT LeftForeArm
							{
								OFFSET 33.000095 0.000022 0.000002
								CHANNELS 3 Zrotation Yrotation Xrotation
								JOINT LeftHand
								{
									OFFSET 25.199768 0.000129 0.000422
									CHANNELS 3 Zrotation Yrotation Xrotation
									End Site
									{
										OFFSET 0.000000 0.000000 0.000000
									}
								}
							}
						}
					}
				}
			}
		}
	}
}
MOTION
Frames: 13
Frame Time: 0.033333
43.141199 0.000000 -203.277492 0.000000 -25.785321 0.000000 -3.883424 89.380493 -0.706905 85.995874 -2.217240 -177.593693 173.096856 3.818605 170.858780 -24.314918 3.070613 -3.506521 94.270968 1.632991 -5.936355 21.454555 0.003108 0.000017 143.109115 4.714204 -175.340108 -37.212465 -1.020085 3.882349 68.812339 -0.111537 7.668953 21.454551 -0.003095 0.000000 7.221288 -0.707184 -2.010866 4.453669 -1.337112 -4.047483 4.136341 -1.361646 -4.039356 12.413647 -7.024693 -3.818709 -12.814678 14.315943 -9.383593 171.289806 -76.113811 7.483692 -23.729320 43.289852 -7.703241 -74.742391 -7.966196 2.237550 -9.251230 -12.626761 15.421669 -149.644787 82.303308 32.288094 29.555297 -62.485747 -74.796220 -30.816649 15.263828 -1.262658 13.629324 2.019694 9.037837 
45.940904 0.000000 -201.803236 0.000000 -26.361570 0.000000 -3.961497 89.039078 -0.882831 85.373616 -2.487891 -177.105129 174.843731 4.256196 171.510913 -23.836201 2.971970 -3.914539 95.456033 1.904466 -6.521133 21.454558 0.003111 0.000018 144.886808 4.452897 -172.411870 -25.024719 -0.922745 2.212122 68.565107 0.533542 6.054723 21.454555 -0.003084 0.000001 7.108522 -0.685627 -2.127821 4.228667 -1.293784 -4.279287 3.911438 -1.319716 -4.271420 12.567340 -7.030808 -4.201548 -12.768626 14.476506 -9.819824 171.104011 -76.286116 7.667687 -27.189368 41.840427 -8.842795 -71.776443 -8.921990 2.179898 -7.783220 -11.503840 14.618032 -148.484351 82.120293 33.468053 31.056385 -63.625288 -75.360817 -31.254935 15.813271 -1.306757 13.389191 1.455409 8.527447 
48.747792 0.000000 -200.301957 0.000000 -26.912639 0.000000 -3.942193 88.614311 -0.984511 84.886114 -2.942460 -176.403707 176.688374 4.806793 171.989436 -23.546850 3.039301 -4.088143 96.267152 1.996052 -7.216300 21.454558 0.003108 0.000017 146.967749 3.892194 -167.264188 -14.948637 -2.073794 0.382622 69.554999 2.584205 8.285381 21.454551 -0.003089 0.000001 7.012496 -0.682835 -2.220973 4.037551 -1.288581 -4.464435 3.720415 -1.315629 -4.456600 12.804405 -7.235306 -4.670749 -12.878025 14.722519 -10.413096 169.401409 -76.316921 9.404609 -29.899519 40.991367 -9.262626 -67.762348 -9.959138 2.087936 -6.159992 -10.603912 13.534213 -148.264597 81.947940 33.695970 32.012178 -64.641108 -75.726867 -31.502086 16.202010 -1.336748 13.029716 0.709534 7.758072 
51.559219 0.000000 -198.768262 0.000000 -27.435582 0.000000 -4.051288 88.404243 -0.922793 84.447999 -2.813805 -175.920315 178.216151 4.435699 171.503851 -23.660137 3.147378 -3.728634 96.382138 1.679604 -8.025838 21.454558 0.003108 0.000018 148.074936 2.550996 -165.952915 -11.229827 -3.191954 0.757602 69.619831 1.718831 6.518832 21.454555 -0.003088 0.000002 6.920074 -0.568485 -2.210931 3.848110 -1.063974 -4.439506 3.530996 -1.090876 -4.433018 13.002358 -7.488483 -5.130477 -12.934217 14.876432 -10.965316 168.026998 -76.434195 10.802885 -32.036849 40.990878 -8.802889 -63.030809 -11.115697 1.981528 -4.290750 -9.737014 12.207422 -148.747641 81.803502 33.211457 31.514213 -65.667986 -75.568038 -31.381919 16.355562 -1.344138 12.638516 0.079110 7.302563 
54.383304 0.000000 -197.208089 0.000000 -27.931160 0.000000 -4.012007 88.096512 -0.771412 84.326343 -2.452973 -175.410333 179.095524 3.395406 170.592471 -25.828451 3.190795 -2.953074 96.255916 1.062058 -8.799651 21.454557 0.003107 0.000017 148.029816 1.955902 -167.177691 -14.817626 -2.774248 2.100451 66.970360 -0.986831 1.371337 21.454551 -0.003089 0.000000 6.892085 -0.356272 -2.192259 3.783700 -0.641514 -4.394918 3.466615 -0.668156 -4.390974 12.984834 -7.871516 -5.455406 -13.135400 14.949240 -11.398224 167.609291 -76.368652 11.231499 -33.468743 41.659035 -7.841391 -57.876482 -11.965122 1.847185 -2.314843 -9.073164 10.942782 -149.428679 81.521730 32.530528 28.815605 -66.330713 -73.979766 -30.979638 16.259229 -1.329790 12.302051 -0.261625 7.012330 
57.219395 0.000000 -195.606003 0.000000 -28.411772 0.000000 -3.902974 88.356743 -0.427882 85.052603 -0.757358 -175.302999 179.694600 0.569201 169.278766 -29.670526 3.403431 -1.935010 93.761893 0.063824 -9.648961 21.454551 0.003107 0.000017 149.429472 -0.495498 -167.486579 -16.479727 -2.916378 2.215853 65.074211 -3.233565 -4.246755 21.454551 -0.003086 0.000001 7.106714 0.179322 -2.022143 4.193042 0.431084 -4.036551 3.875791 0.406583 -4.039076 12.717028 -8.127751 -5.749068 -13.402356 14.803224 -11.739076 167.266115 -75.752283 11.606111 -33.831204 43.129943 -6.934971 -52.939888 -12.506479 1.711125 -0.657485 -8.494225 10.748267 -150.095839 80.751250 31.877309 22.717824 -66.553992 -69.245223 -30.294508 15.984750 -1.298563 12.159736 -0.194971 6.761928 
60.101073 0.000000 -193.978510 0.000000 -28.890271 0.000000 -3.644227 88.561241 0.002694 85.598665 0.517712 -175.241399 177.948407 -2.505706 168.521804 -37.355401 3.271397 -1.105657 87.961041 -1.167921 -10.562361 21.454558 0.003109 0.000018 150.360522 -2.411895 -173.394365 -20.224426 -1.561244 5.873841 68.391531 -5.580012 -3.918223 21.454555 -0.003091 0.000001 7.238926 0.629383 -1.930816 4.443055 1.331777 -3.836508 4.125630 1.308466 -3.844468 13.089417 -8.261424 -5.852209 -13.764598 14.337115 -11.736969 166.302812 -75.152346 12.614484 -32.395294 45.956207 -6.165041 -47.932912 -12.860239 1.572667 0.548516 -8.503298 10.929958 -151.815598 80.270897 30.145829 15.180227 -66.399937 -63.092725 -29.097470 15.118489 -1.220128 12.302537 0.778838 7.286826 
63.029255 0.000000 -192.345553 0.000000 -29.381020 0.000000 -3.618921 88.858253 0.237506 85.672228 1.156247 -175.450157 173.830336 -4.824404 168.295055 -47.134709 3.964353 -0.180373 78.531405 -3.161460 -12.060237 21.454558 0.003108 0.000017 151.490973 -2.954196 -172.283421 -22.543613 -1.059420 5.031332 71.677378 -4.920130 -4.188590 21.454551 -0.003090 0.000001 7.241893 0.876963 -1.821600 4.442812 1.822603 -3.608934 4.125237 1.800659 -3.619862 13.721554 -8.235177 -5.805790 -13.497983 13.716556 -11.400772 165.375901 -75.519790 13.545977 -30.290615 49.938590 -5.137371 -42.556259 -12.724787 1.405773 1.873862 -9.178342 9.848497 -154.516747 80.473808 27.398909 8.512902 -66.280067 -57.741285 -28.244398 14.561671 -1.168797 12.739391 1.734619 7.883307 
65.999871 0.000000 -190.717551 0.000000 -29.887411 0.000000 -3.576480 89.283287 0.289165 85.643711 1.159634 -176.007131 168.865649 -5.852204 169.706254 -57.583877 4.269988 -0.514908 71.112965 -3.149876 -10.113938 21.454550 0.003107 0.000019 153.145737 -2.876295 -169.432678 -23.799866 -1.288587 2.858273 74.415089 -3.503504 -5.008863 21.454551 -0.003102 -0.000002 7.196391 0.954002 -1.564625 4.354030 1.965672 -3.093031 4.036259 1.946821 -3.104835 14.159651 -8.492654 -5.838052 -13.273472 13.480350 -11.320640 164.435179 -76.015846 14.484813 -27.424311 53.847890 -4.159040 -37.759553 -11.751014 1.216451 3.385205 -8.553002 9.307028 -157.494805 81.114336 24.364512 4.138514 -66.058789 -54.263179 -28.801378 15.396411 -1.232413 13.155685 1.758689 7.560563 
68.997712 0.000000 -189.090480 0.000000 -30.407070 0.000000 -3.627481 89.561737 0.273059 85.837348 1.140648 -176.738171 164.233702 -6.276797 171.750161 -66.476558 3.812018 -2.347477 68.554213 -1.817914 -9.405328 21.454557 0.003107 0.000019 154.992524 -3.004108 -167.955349 -24.958696 -1.586965 1.457828 76.936514 -2.522516 -5.491961 21.454557 -0.003097 0.000000 7.211335 0.980000 -1.153832 4.390637 2.002695 -2.270350 4.072609 1.988810 -2.282397 14.073185 -8.865585 -6.057692 -12.894123 13.644192 -11.589192 165.106381 -76.045557 13.798635 -23.879253 56.703585 -2.518686 -33.843857 -10.695446 1.056629 4.407287 -6.523681 10.073364 -158.355996 81.427576 23.486044 0.026430 -65.099995 -51.146089 -30.721218 16.807289 -1.359715 13.174245 1.601389 6.185422 
72.027411 0.000000 -187.464263 0.000000 -30.937382 0.000000 -3.658886 89.768646 0.254866 86.538883 1.217932 -177.886838 160.772490 -6.714097 172.445187 -72.502547 3.405287 -5.795870 70.477286 0.283871 -11.106099 21.454555 0.003108 0.000016 157.601042 -3.484299 -168.986626 -25.624961 -1.320872 1.136984 79.153143 -2.167750 -5.431295 21.454553 -0.003092 0.000000 7.347377 0.975303 -0.618479 4.672263 1.974618 -1.197580 4.354037 1.967208 -1.209486 14.061100 -9.148282 -6.361879 -12.667869 13.887106 -11.979133 166.916901 -75.727550 11.963817 -19.116313 58.351406 1.311079 -30.691100 -9.597706 0.919640 4.589663 -5.421328 10.247426 -158.205718 81.295275 23.640366 -4.956152 -63.211570 -47.640385 -33.157351 17.832062 -1.476535 12.921280 2.507924 4.617852 
75.077490 0.000000 -185.834026 0.000000 -31.470745 0.000000 -3.640187 90.011307 0.148933 86.931110 1.057554 -179.307708 157.250462 -6.821199 172.344265 -75.548627 3.415022 -8.510970 71.399826 2.687484 -10.078910 21.454565 0.003109 0.000016 160.067901 -3.703201 -171.206697 -26.037946 -0.880021 1.115853 81.137818 -1.961232 -5.049100 21.454550 -0.003093 -0.000001 7.390427 0.900081 -0.119562 4.767001 1.804336 -0.202260 4.448711 1.802947 -0.213161 14.397945 -9.665096 -6.500667 -12.749477 14.062261 -12.215180 169.977918 -75.286129 8.852897 -12.381035 59.239317 8.135201 -28.842608 -8.845267 0.835482 4.977830 -5.201785 8.556409 -160.338418 81.369580 21.476929 -9.940208 -61.079465 -44.392818 -35.179514 18.682500 -1.577134 12.625005 4.036622 3.561401 
78.150112 0.000000 -184.195909 0.000000 -32.002746 0.000000 -3.607292 90.182114 -0.039233 87.080224 0.696216 179.509842 153.824343 -6.479993 172.465391 -75.692696 3.601223 -9.995093 71.410864 3.890690 -9.713336 21.454555 0.003109 0.000017 162.219889 -3.544903 -173.649186 -26.600699 -0.424577 1.452796 83.054451 -2.023610 -4.688174 21.454550 -0.003098 -0.000001 7.351113 0.780459 0.233398 4.693183 1.550939 0.498047 4.374965 1.553781 0.488665 14.889505 -10.551500 -6.518070 -12.720547 14.424081 -12.385173 173.038417 -75.090956 5.729170 -4.022105 59.820231 16.298160 -28.083410 -8.246875 0.782568 5.653102 -5.889673 6.709425 -165.874218 82.150845 15.860879 -13.844621 -59.584364 -41.196781 -36.934559 19.835283 -1.694042 12.331739 4.921730 2.159477 
